<?xml version="1.0" encoding="utf-8"?>
<!-- Generator: Adobe Illustrator 20.1.0, SVG Export Plug-In . SVG Version: 6.00 Build 0)  -->
<svg version="1.1" id="Layer_1" xmlns="http://www.w3.org/2000/svg" xmlns:xlink="http://www.w3.org/1999/xlink" x="0px" y="0px"
	 viewBox="0 0 16 16" style="enable-background:new 0 0 16 16;" xml:space="preserve">
<circle style="fill:#444444;" cx="12.1" cy="3.9" r="1"/>
<path style="fill:#444444;" d="M8,12c-2.2,0-4-1.8-4-4s1.8-4,4-4s4,1.8,4,4S10.2,12,8,12z M8,6C6.9,6,6,6.9,6,8s0.9,2,2,2s2-0.9,2-2
	S9.1,6,8,6z"/>
<path style="fill:#444444;" d="M12,16H4c-2.1,0-4-1.9-4-4V4c0-2.1,1.9-4,4-4h8c2.1,0,4,1.9,4,4v8C16,14.1,14.1,16,12,16z M4,2
	C3.1,2,2,3.1,2,4v8c0,1,1,2,2,2h8c0.9,0,2-1.1,2-2V4c0-0.9-1.1-2-2-2H4z"/>
</svg>
